<svg xmlns="http://www.w3.org/2000/svg" version="1.1" xmlns:xlink="http://www.w3.org/1999/xlink" viewBox="0 0 200 200" width="200" height="200"><metadata><rdf:RDF xmlns:rdf="http://www.w3.org/1999/02/22-rdf-syntax-ns#" xmlns:dc="http://purl.org/dc/elements/1.1/"><rdf:Description><dc:creator>RealFaviconGenerator</dc:creator><dc:source>https://realfavicongenerator.net</dc:source></rdf:Description></rdf:RDF></metadata><rect width="200" height="200" fill="url('#gradient')"></rect><defs><linearGradient id="gradient" gradientTransform="rotate(130 0.5 0.5)"><stop offset="0%" stop-color="#b02f7a"></stop><stop offset="100%" stop-color="#3b263d"></stop></linearGradient></defs><g><g fill="#fefce9" transform="matrix(5.073492981007432,0,0,5.073492981007432,8.956829998066965,136.07191063883283)" stroke="#47b5b5" stroke-width="0.35"><path d="M10.11-14.22L12.09-5.30L13.72-14.22L17.12-14.22L14.10 0L10.55 0L8.64-8.11L6.78 0L3.23 0L0.21-14.22L3.61-14.22L5.24-5.30L7.20-14.22L10.11-14.22ZM22.11-14.22L22.11 0L18.69 0L18.69-14.22L22.11-14.22ZM30.11-4.82L27.92-4.82L27.92 0L24.49 0L24.49-14.22L30.17-14.22Q31.80-14.22 33.05-13.62Q34.31-13.02 35.00-11.91Q35.68-10.80 35.68-9.39L35.68-9.39Q35.68-7.31 34.19-6.07Q32.71-4.82 30.11-4.82L30.11-4.82ZM27.92-11.57L27.92-7.47L30.17-7.47Q31.16-7.47 31.68-7.97Q32.21-8.47 32.21-9.38L32.21-9.38Q32.21-10.37 31.67-10.97Q31.13-11.56 30.21-11.57L30.21-11.57L27.92-11.57Z"></path></g></g><style>@media (prefers-color-scheme: light) { :root { filter: none; } }
@media (prefers-color-scheme: dark) { :root { filter: none; } }
</style></svg>